<?xml version="1.0" encoding="UTF-8" standalone="no"?>
<!-- Created with Inkscape (http://www.inkscape.org/) -->

<svg
   xmlns:dc="http://purl.org/dc/elements/1.1/"
   xmlns:cc="http://creativecommons.org/ns#"
   xmlns:rdf="http://www.w3.org/1999/02/22-rdf-syntax-ns#"
   xmlns:svg="http://www.w3.org/2000/svg"
   xmlns="http://www.w3.org/2000/svg"
   xmlns:xlink="http://www.w3.org/1999/xlink"
   xmlns:sodipodi="http://sodipodi.sourceforge.net/DTD/sodipodi-0.dtd"
   xmlns:inkscape="http://www.inkscape.org/namespaces/inkscape"
   width="210"
   height="210"
   id="svg2"
   version="1.1"
   inkscape:version="0.48.3.1 r9886"
   sodipodi:docname="textadept.svg"
   inkscape:export-filename="/home/mitchell/code/textadept/core/images/textadept.png"
   inkscape:export-xdpi="85.714287"
   inkscape:export-ydpi="85.714287">
  <title
     id="title3043">Textadept</title>
  <defs
     id="defs4">
    <linearGradient
       id="linearGradient6439">
      <stop
         style="stop-color:#ff0000;stop-opacity:1;"
         offset="0"
         id="stop6441" />
      <stop
         style="stop-color:#ff0000;stop-opacity:0;"
         offset="1"
         id="stop6443" />
    </linearGradient>
    <linearGradient
       inkscape:collect="always"
       id="linearGradient3813">
      <stop
         style="stop-color:#ffffff;stop-opacity:1;"
         offset="0"
         id="stop3815" />
      <stop
         style="stop-color:#ffffff;stop-opacity:0;"
         offset="1"
         id="stop3817" />
    </linearGradient>
    <linearGradient
       inkscape:collect="always"
       xlink:href="#linearGradient3813"
       id="linearGradient3827"
       gradientUnits="userSpaceOnUse"
       x1="145"
       y1="37.362183"
       x2="145"
       y2="177.36218"
       gradientTransform="matrix(0.6,0,0,0.60000004,73,16.544877)" />
    <linearGradient
       inkscape:collect="always"
       xlink:href="#linearGradient6439"
       id="linearGradient6445"
       x1="160"
       y1="7.3621826"
       x2="160"
       y2="227.36218"
       gradientUnits="userSpaceOnUse" />
    <linearGradient
       inkscape:collect="always"
       xlink:href="#linearGradient3813"
       id="linearGradient6555"
       x1="144"
       y1="7.8749957"
       x2="144.00002"
       y2="11.417481"
       gradientUnits="userSpaceOnUse"
       gradientTransform="matrix(0.9797013,0,0,0.98800702,4.9229893,-0.91836883)" />
    <linearGradient
       inkscape:collect="always"
       xlink:href="#linearGradient3813"
       id="linearGradient6575"
       x1="145"
       y1="6.3621826"
       x2="145"
       y2="9.3621826"
       gradientUnits="userSpaceOnUse" />
    <linearGradient
       inkscape:collect="always"
       xlink:href="#linearGradient3813"
       id="linearGradient6582"
       gradientUnits="userSpaceOnUse"
       x1="145"
       y1="6.3621826"
       x2="145"
       y2="9.3621826" />
    <linearGradient
       inkscape:collect="always"
       xlink:href="#linearGradient3813"
       id="linearGradient6588"
       gradientUnits="userSpaceOnUse"
       x1="145"
       y1="6.3621826"
       x2="145"
       y2="9.3621826" />
    <linearGradient
       inkscape:collect="always"
       xlink:href="#linearGradient3813"
       id="linearGradient6625"
       gradientUnits="userSpaceOnUse"
       gradientTransform="matrix(0.6530612,0,0,0.57142868,71.246061,842.69362)"
       x1="161.66667"
       y1="34.695507"
       x2="128.33333"
       y2="176.36217" />
    <linearGradient
       inkscape:collect="always"
       xlink:href="#linearGradient3813"
       id="linearGradient6627"
       gradientUnits="userSpaceOnUse"
       x1="145"
       y1="6.3621826"
       x2="145"
       y2="9.3621826" />
    <linearGradient
       inkscape:collect="always"
       xlink:href="#linearGradient3813"
       id="linearGradient6631"
       gradientUnits="userSpaceOnUse"
       x1="145.33333"
       y1="6.3621826"
       x2="144.66667"
       y2="9.3621826" />
    <linearGradient
       inkscape:collect="always"
       xlink:href="#linearGradient3813"
       id="linearGradient6647"
       gradientUnits="userSpaceOnUse"
       x1="145.33333"
       y1="6.3621826"
       x2="144.66667"
       y2="9.3621826" />
    <linearGradient
       inkscape:collect="always"
       xlink:href="#linearGradient6439"
       id="linearGradient6666"
       gradientUnits="userSpaceOnUse"
       x1="160"
       y1="7.3621826"
       x2="160"
       y2="227.36218" />
    <linearGradient
       inkscape:collect="always"
       xlink:href="#linearGradient3813"
       id="linearGradient6668"
       gradientUnits="userSpaceOnUse"
       x1="145.33333"
       y1="6.3621826"
       x2="144.66667"
       y2="9.3621826" />
    <linearGradient
       inkscape:collect="always"
       xlink:href="#linearGradient6439"
       id="linearGradient6674"
       gradientUnits="userSpaceOnUse"
       x1="160"
       y1="7.3621826"
       x2="160"
       y2="227.36218" />
    <linearGradient
       inkscape:collect="always"
       xlink:href="#linearGradient3813"
       id="linearGradient6676"
       gradientUnits="userSpaceOnUse"
       x1="145"
       y1="6.3621826"
       x2="145"
       y2="9.3621826" />
    <linearGradient
       inkscape:collect="always"
       xlink:href="#linearGradient6439"
       id="linearGradient6696"
       gradientUnits="userSpaceOnUse"
       x1="160"
       y1="7.3621826"
       x2="160"
       y2="227.36218" />
    <linearGradient
       inkscape:collect="always"
       xlink:href="#linearGradient3813"
       id="linearGradient6698"
       gradientUnits="userSpaceOnUse"
       x1="145"
       y1="6.3621826"
       x2="145"
       y2="9.3621826" />
    <linearGradient
       inkscape:collect="always"
       xlink:href="#linearGradient6439"
       id="linearGradient6704"
       gradientUnits="userSpaceOnUse"
       x1="160"
       y1="7.3621826"
       x2="160"
       y2="227.36218" />
    <linearGradient
       inkscape:collect="always"
       xlink:href="#linearGradient3813"
       id="linearGradient6706"
       gradientUnits="userSpaceOnUse"
       x1="145"
       y1="6.3621826"
       x2="145"
       y2="9.3621826" />
    <linearGradient
       inkscape:collect="always"
       xlink:href="#linearGradient6439"
       id="linearGradient6718"
       gradientUnits="userSpaceOnUse"
       x1="160"
       y1="7.3621826"
       x2="160"
       y2="227.36218" />
    <linearGradient
       inkscape:collect="always"
       xlink:href="#linearGradient3813"
       id="linearGradient6720"
       gradientUnits="userSpaceOnUse"
       x1="145"
       y1="6.3621826"
       x2="145"
       y2="9.3621826" />
    <linearGradient
       inkscape:collect="always"
       xlink:href="#linearGradient6439"
       id="linearGradient6726"
       gradientUnits="userSpaceOnUse"
       x1="160"
       y1="7.3621826"
       x2="160"
       y2="227.36218" />
    <linearGradient
       inkscape:collect="always"
       xlink:href="#linearGradient3813"
       id="linearGradient6730"
       gradientUnits="userSpaceOnUse"
       x1="145"
       y1="6.3621826"
       x2="145.33333"
       y2="9.3621826" />
    <linearGradient
       inkscape:collect="always"
       xlink:href="#linearGradient6439"
       id="linearGradient6742"
       gradientUnits="userSpaceOnUse"
       x1="160"
       y1="7.3621826"
       x2="160"
       y2="227.36218" />
    <linearGradient
       inkscape:collect="always"
       xlink:href="#linearGradient3813"
       id="linearGradient6744"
       gradientUnits="userSpaceOnUse"
       x1="145"
       y1="6.3621826"
       x2="145.33333"
       y2="9.3621826" />
    <linearGradient
       inkscape:collect="always"
       xlink:href="#linearGradient3813"
       id="linearGradient6752"
       gradientUnits="userSpaceOnUse"
       x1="145"
       y1="6.3621826"
       x2="145"
       y2="9.3621826" />
    <linearGradient
       inkscape:collect="always"
       xlink:href="#linearGradient3813"
       id="linearGradient6756"
       gradientUnits="userSpaceOnUse"
       x1="145"
       y1="6.3621826"
       x2="145"
       y2="9.3621826" />
    <linearGradient
       inkscape:collect="always"
       xlink:href="#linearGradient3813"
       id="linearGradient6764"
       gradientUnits="userSpaceOnUse"
       x1="145"
       y1="6.3621826"
       x2="145"
       y2="9.3621826" />
    <linearGradient
       inkscape:collect="always"
       xlink:href="#linearGradient3813"
       id="linearGradient6768"
       gradientUnits="userSpaceOnUse"
       x1="145"
       y1="6.3621826"
       x2="145"
       y2="9.3621826" />
    <linearGradient
       inkscape:collect="always"
       xlink:href="#linearGradient6439"
       id="linearGradient6882"
       gradientUnits="userSpaceOnUse"
       gradientTransform="matrix(0.97521532,0,0,1.1707712,2.715174,794.94612)"
       x1="160"
       y1="7.3621826"
       x2="160"
       y2="227.36218" />
    <linearGradient
       inkscape:collect="always"
       xlink:href="#linearGradient3813"
       id="linearGradient6884"
       gradientUnits="userSpaceOnUse"
       x1="145"
       y1="6.3621826"
       x2="145"
       y2="9.3621826" />
    <linearGradient
       inkscape:collect="always"
       xlink:href="#linearGradient6439"
       id="linearGradient3832"
       gradientUnits="userSpaceOnUse"
       gradientTransform="matrix(0.97521532,0,0,1.1707712,2.715174,794.94612)"
       x1="160"
       y1="7.3621826"
       x2="160"
       y2="227.36218" />
    <linearGradient
       inkscape:collect="always"
       xlink:href="#linearGradient3813"
       id="linearGradient3837"
       gradientUnits="userSpaceOnUse"
       x1="145"
       y1="6.3621826"
       x2="145"
       y2="9.3621826" />
  </defs>
  <sodipodi:namedview
     id="base"
     pagecolor="#ffffff"
     bordercolor="#666666"
     borderopacity="1.0"
     inkscape:pageopacity="0.0"
     inkscape:pageshadow="2"
     inkscape:zoom="2.3434784"
     inkscape:cx="120"
     inkscape:cy="115.00001"
     inkscape:document-units="px"
     inkscape:current-layer="g6505"
     showgrid="false"
     inkscape:snap-global="false"
     showguides="true"
     inkscape:guide-bbox="true"
     inkscape:window-width="1366"
     inkscape:window-height="724"
     inkscape:window-x="0"
     inkscape:window-y="20"
     inkscape:window-maximized="1"
     fit-margin-top="0"
     fit-margin-left="0"
     fit-margin-right="0"
     fit-margin-bottom="0">
    <inkscape:grid
       type="xygrid"
       id="grid2985"
       empspacing="5"
       visible="true"
       enabled="true"
       snapvisiblegridlinesonly="true"
       originx="-24.307286px"
       originy="-17.89017px" />
  </sodipodi:namedview>
  <metadata
     id="metadata7">
    <rdf:RDF>
      <cc:Work
         rdf:about="">
        <dc:format>image/svg+xml</dc:format>
        <dc:type
           rdf:resource="http://purl.org/dc/dcmitype/StillImage" />
        <dc:title>Textadept</dc:title>
        <dc:creator>
          <cc:Agent>
            <dc:title>Mitchell</dc:title>
          </cc:Agent>
        </dc:creator>
        <dc:description>Textadept icon without 50 degree CCW inclination.</dc:description>
      </cc:Work>
    </rdf:RDF>
  </metadata>
  <g
     inkscape:label="ta"
     inkscape:groupmode="layer"
     id="layer1"
     transform="translate(-24.307286,-824.47201)">
    <path
       style="fill:#ffcc00;fill-opacity:1;stroke:#000000;stroke-width:1.5;stroke-miterlimit:4;stroke-opacity:1;stroke-dasharray:none"
       d="m 273.5573,921.972 c 0,-34.10356 -55.62865,-61.75001 -124.25002,-61.75001 -68.621408,0 -124.250029,27.64645 -124.250016,61.75 -5.2e-5,34.10364 55.628626,61.75004 124.250026,61.75004 68.62137,0 124.24999,-27.64641 124.25001,-61.75003 z"
       id="path3018"
       inkscape:connector-curvature="0" />
    <g
       id="g4046">
      <g
         style="fill:#e5b800;fill-opacity:1"
         transform="translate(88.103719,180)"
         id="g3927">
        <g
           style="font-size:125px;font-style:normal;font-weight:normal;line-height:125%;letter-spacing:0px;word-spacing:0px;fill:#e5b800;fill-opacity:1;stroke:none;font-family:Sans"
           id="text3889"
           transform="translate(-62.442394,-4.40207)">
          <path
             d="m 130.32904,752.61875 c -9.07393,4e-5 -15.36055,1.03763 -18.85987,3.11279 -3.49937,2.07523 -5.24904,5.61568 -5.24902,10.62054 l -11.23047,0 c -8e-6,-7.6904 2.563466,-12.75673 7.69043,-16.66302 5.16762,-3.90621 12.85804,-5.85937 23.07129,-5.85937 8.99243,-1.2e-4 17.55885,-1.3e-4 26.55128,-1.3e-4 l 0,8.789"
             id="path3918"
             inkscape:connector-curvature="0"
             sodipodi:nodetypes="cscccccc"
             style="fill:#e5b800;fill-opacity:1" />
        </g>
        <g
           transform="matrix(-1,0,0,-1,-95.373665,19.29116)"
           style="font-size:125px;font-style:normal;font-weight:normal;line-height:125%;letter-spacing:0px;word-spacing:0px;fill:#e5b800;fill-opacity:1;stroke:none;font-family:Sans"
           id="text3885-2">
          <path
             d="m -173.94227,-765.18085 23.13232,0 0,9.399 -23.13232,0 0,36.43841 c 0,5.57456 0.75274,9.15528 2.2583,10.74218 1.54619,1.58693 4.65898,3.05141 9.33838,3.05141 l 11.53564,0 0,8.72838 -11.53564,0 c -8.66702,0 -14.64846,-1.60726 -17.94434,-4.82178 -3.29591,-3.2552 -4.94406,-9.15526 -4.94402,-17.70019 l 1.7e-4,-36.43841 -8.23974,0 0,-9.399 8.23974,0"
             id="path3915"
             inkscape:connector-curvature="0"
             sodipodi:nodetypes="ccccscsccscscccc"
             style="fill:#e5b800;fill-opacity:1" />
        </g>
      </g>
      <g
         transform="translate(103.05847,189.09091)"
         id="text3885"
         style="font-size:125px;font-style:normal;font-weight:normal;line-height:125%;letter-spacing:0px;word-spacing:0px;fill:#000000;fill-opacity:1;stroke:none;font-family:Sans">
        <path
           sodipodi:nodetypes="cccccscsccscscccccc"
           inkscape:connector-curvature="0"
           id="path3921"
           d="m 28.883781,687.61255 0,19.40918 23.132325,0 0,8.72837 -23.132325,-3.4e-4 0,37.10937 c -2.2e-5,5.57456 0.752744,9.15529 2.258301,10.74219 1.546197,1.58692 4.658987,2.38038 9.338379,2.38037 l 11.535645,4.1e-4 0,9.399 -11.535645,0 c -8.667018,0 -14.648457,-1.60725 -17.944336,-4.82177 -3.295911,-3.2552 -4.943859,-9.15526 -4.943847,-17.7002 l 0,-37.10937 -8.2397466,0 0,-8.72803 8.2397466,0 0,-19.40918 11.291503,0" />
      </g>
    </g>
    <path
       inkscape:connector-curvature="0"
       id="path3007"
       d="m 244.30729,903.472 c 1e-5,-22.09137 -35.81722,-39.99999 -79.99999,-39.99999 -44.18279,0 -80.000012,17.90862 -80.000014,39.99999 4e-6,22.09139 35.817224,40.00001 80.000014,40.00001 44.18277,-10e-6 79.99999,-17.90862 79.99999,-40.00001 z"
       style="fill:url(#linearGradient6625);fill-opacity:1;display:inline" />
  </g>
  <g
     inkscape:groupmode="layer"
     id="g6505"
     inkscape:label="orbiter"
     style="display:inline"
     transform="translate(-24.307286,-824.47201)">
    <g
       id="g3845">
      <g
         id="g3841">
        <path
           sodipodi:type="arc"
           style="fill:#ff0000;fill-opacity:1;stroke:#000000;stroke-width:0.63826799;stroke-miterlimit:4;stroke-opacity:1;stroke-dasharray:none;display:inline"
           id="path6557"
           sodipodi:cx="145"
           sodipodi:cy="12.362183"
           sodipodi:rx="5"
           sodipodi:ry="5"
           d="m 150,12.362183 a 5,5 0 1 1 -10,0 5,5 0 1 1 10,0 z"
           transform="matrix(-2.3500066,0,0,2.3500066,502.55824,787.9208)" />
        <path
           sodipodi:type="arc"
           style="fill:url(#linearGradient3837);fill-opacity:1;stroke:none"
           id="path6559"
           sodipodi:cx="145"
           sodipodi:cy="7.8621826"
           sodipodi:rx="2"
           sodipodi:ry="1.5"
           d="m 147,7.8621826 a 2,1.5 0 1 1 -4,0 2,1.5 0 1 1 4,0 z"
           transform="matrix(-3.75,0,0,3.6666667,705.55729,783.14396)" />
      </g>
      <path
         sodipodi:nodetypes="cssssc"
         inkscape:connector-curvature="0"
         id="path3010"
         d="m 157.28691,1013.1563 c -1.39765,4.0607 -2.89103,7.5581 -4.46251,10.4167 -3.14299,5.717 -6.59856,8.8786 -10.22579,8.8786 -14.50905,0 -26.27092,-50.58277 -26.27093,-112.97967 1e-5,-62.39688 11.76191,-112.97953 26.27089,-112.97953 0.90682,0 1.80291,0.19758 2.68607,0.5833"
         style="opacity:0.75;fill:none;stroke:url(#linearGradient3832);stroke-width:4.04078674;stroke-linecap:round;stroke-miterlimit:4;stroke-opacity:1;stroke-dasharray:none;display:inline" />
    </g>
  </g>
</svg>
